<?xml version="1.0" encoding="UTF-8" standalone="no"?>
<svg
   width="3259px"
   height="984px"
   viewBox="0 0 3259 984"
   version="1.1"
   id="svg11"
   sodipodi:docname="melio-horizontal-dark.svg"
   inkscape:version="1.3 (0e150ed, 2023-07-21)"
   xmlns:inkscape="http://www.inkscape.org/namespaces/inkscape"
   xmlns:sodipodi="http://sodipodi.sourceforge.net/DTD/sodipodi-0.dtd"
   xmlns="http://www.w3.org/2000/svg"
   xmlns:svg="http://www.w3.org/2000/svg">
  <defs
     id="defs11" />
  <sodipodi:namedview
     id="namedview11"
     pagecolor="#ffffff"
     bordercolor="#000000"
     borderopacity="0.25"
     inkscape:showpageshadow="2"
     inkscape:pageopacity="0.0"
     inkscape:pagecheckerboard="0"
     inkscape:deskcolor="#d1d1d1"
     inkscape:zoom="0.17888923"
     inkscape:cx="1629.5"
     inkscape:cy="491.92453"
     inkscape:window-width="1280"
     inkscape:window-height="1367"
     inkscape:window-x="1283"
     inkscape:window-y="37"
     inkscape:window-maximized="0"
     inkscape:current-layer="svg11" />
  <title
     id="title1">Group 2</title>
  <g
     id="Group">
    <path
       d="M14.8717536,465.458427 C10.4683098,465.458427 6.88882321,464.079891 4.13329393,461.32282 C1.37776464,458.56575 4.75104386e-14,454.984261 4.75104386e-14,450.578353 L4.75104386e-14,143.002776 C4.75104386e-14,138.596869 1.37776464,135.01538 4.13329393,132.258309 C6.88882321,129.501238 10.4683098,128.122703 14.8717536,128.122703 L43.8858561,128.122703 C48.2893,128.122703 51.8687865,129.501238 54.6243158,132.258309 C57.3798451,135.01538 58.7576098,138.596869 58.7576098,143.002776 L58.7576098,165.464794 C68.9152471,152.355193 81.5312489,141.813452 96.6056149,133.83957 C111.679981,125.865689 129.807041,121.797658 150.986796,121.635477 C199.883933,121.311116 234.382079,141.151214 254.481234,181.155771 C264.422751,163.207781 278.909541,148.800734 297.941604,137.934631 C316.973667,127.068529 338.538385,121.635477 362.635758,121.635477 C385.382383,121.635477 405.90027,126.87256 424.18942,137.346727 C442.47857,147.820893 456.938345,163.478082 467.568745,184.318293 C478.199145,205.158505 483.514345,231.431768 483.514345,263.138083 L483.514345,450.578353 C483.514345,454.984261 482.13658,458.56575 479.381051,461.32282 C476.625521,464.079891 473.046035,465.458427 468.642591,465.458427 L438.291246,465.458427 C433.887802,465.458427 430.308316,464.079891 427.552787,461.32282 C424.797257,458.56575 423.419493,454.984261 423.419493,450.578353 L423.419493,269.017131 C423.419493,244.527855 419.880529,225.424327 412.8026,211.706548 C405.724672,197.98877 396.397746,188.271446 384.821821,182.554579 C373.245897,176.837712 360.609634,173.979278 346.913033,173.979278 C335.404645,173.979278 323.842228,176.837712 312.225782,182.554579 C300.609335,188.271446 291.019012,197.98877 283.454814,211.706548 C275.890616,225.424327 272.108517,244.527855 272.108517,269.017131 L272.108517,450.578353 C272.108517,454.984261 270.730752,458.56575 267.975223,461.32282 C265.219694,464.079891 261.640207,465.458427 257.236763,465.458427 L226.885419,465.458427 C222.481975,465.458427 218.902488,464.079891 216.146959,461.32282 C213.39143,458.56575 212.013665,454.984261 212.013665,450.578353 L212.013665,269.017131 C212.013665,244.527855 208.299103,225.424327 200.86998,211.706548 C193.440857,197.98877 183.938334,188.271446 172.362409,182.554579 C160.786485,176.837712 148.501416,173.979278 135.507205,173.979278 C123.998818,173.979278 112.436401,176.857984 100.819954,182.615397 C89.2035069,188.372809 79.5912347,198.090132 71.9831373,211.767366 C64.3750399,225.4446 60.5709912,244.352159 60.5709912,268.490044 L60.5709912,450.578353 C60.5709912,454.984261 59.1932265,458.56575 56.4376972,461.32282 C53.682168,464.079891 50.1026814,465.458427 45.6992375,465.458427 L14.8717536,465.458427 Z"
       id="path4"
       transform="translate(1044.4313,240.65217)"
       style="fill:#ffffff;fill-opacity:1" />
    <path
       d="M710.924181,471.945652 C666.241383,471.945652 630.750436,458.173813 604.45134,430.630135 C578.152244,403.086457 563.597917,365.54164 560.788358,317.995683 C560.437163,312.562632 560.261565,305.372623 560.261565,296.425658 C560.261565,287.478693 560.437163,280.32923 560.788358,274.977269 C562.706422,244.108888 569.845134,217.146357 582.204493,194.089677 C594.563853,171.032996 611.657589,153.193126 633.485704,140.570067 C655.313818,127.947007 681.086121,121.635477 710.802614,121.635477 C743.328665,121.635477 770.748883,128.602487 793.063267,142.536507 C815.377652,156.470527 832.424112,176.121414 844.202649,201.489168 C855.981186,226.856923 861.870455,256.596797 861.870455,290.708791 L861.870455,302.264161 C861.870455,306.670069 860.404891,310.251558 857.473764,313.008628 C854.542638,315.765699 850.875352,317.144235 846.471909,317.144235 L622.696591,317.144235 C622.696591,317.225325 622.696591,318.009198 622.696591,319.495854 C622.696591,320.98251 622.696591,322.158319 622.696591,323.023283 C623.398981,340.457701 627.230044,356.837945 634.189782,372.164016 C641.14952,387.490086 651.140002,399.917177 664.161228,409.445289 C677.182455,418.973402 692.689061,423.737458 710.681046,423.737458 C726.268697,423.737458 739.249401,421.372324 749.623159,416.642055 C759.996916,411.911787 768.351303,406.640916 774.686318,400.829443 C781.021334,395.01797 785.269442,390.503943 787.430641,387.28736 C791.3208,381.989459 794.387002,378.799907 796.629246,377.718702 C798.871491,376.637498 802.410455,376.096896 807.246139,376.096896 L838.651068,376.096896 C842.622272,376.096896 846.012654,377.306493 848.822213,379.725688 C851.631772,382.144882 852.820432,385.341192 852.388192,389.314618 C851.955952,395.774813 848.525048,403.681119 842.09548,413.033536 C835.665911,422.385953 826.460553,431.589704 814.479403,440.644789 C802.498254,449.699875 787.768329,457.180457 770.289628,463.086535 C752.810928,468.992613 733.022445,471.945652 710.924181,471.945652 Z M622.696591,272.422924 L799.952091,272.422924 L799.952091,270.19294 C799.952091,250.839384 796.433388,233.567147 789.395982,218.376227 C782.358576,203.185307 772.153663,191.197455 758.781241,182.412671 C745.40882,173.627886 729.415944,169.235494 710.802614,169.235494 C692.189284,169.235494 676.282518,173.627886 663.082317,182.412671 C649.882116,191.197455 639.851112,203.185307 632.989303,218.376227 C626.127495,233.567147 622.696591,250.839384 622.696591,270.19294 L622.696591,272.422924 Z"
       id="path5"
       transform="translate(1044.4313,240.65217)"
       style="fill:#ffffff;fill-opacity:1" />
    <path
       d="M955.312268,465.458427 C950.908824,465.458427 947.329338,464.079891 944.573809,461.32282 C941.818279,458.56575 940.440515,454.984261 940.440515,450.578353 L940.440515,19.7454925 C940.440515,15.3395852 941.818279,11.7580961 944.573809,9.00102532 C947.329338,6.2439545 950.908824,4.86541909 955.312268,4.86541909 L986.018185,4.86541909 C990.421628,4.86541909 994.001115,6.2439545 996.756644,9.00102532 C999.512174,11.7580961 1000.88994,15.3395852 1000.88994,19.7454925 L1000.88994,450.578353 C1000.88994,454.984261 999.512174,458.56575 996.756644,461.32282 C994.001115,464.079891 990.421628,465.458427 986.018185,465.458427 L955.312268,465.458427 Z"
       id="path6"
       transform="translate(1044.4313,240.65217)"
       style="fill:#ffffff;fill-opacity:1" />
    <path
       d="M1119.13868,465.458427 C1114.73523,465.458427 1111.15575,464.079891 1108.40022,461.32282 C1105.64469,458.56575 1104.26692,454.984261 1104.26692,450.578353 L1104.26692,143.002776 C1104.26692,138.596869 1105.64469,135.01538 1108.40022,132.258309 C1111.15575,129.501238 1114.73523,128.122703 1119.13868,128.122703 L1149.84459,128.122703 C1154.24804,128.122703 1157.82753,129.501238 1160.58305,132.258309 C1163.33858,135.01538 1164.71635,138.596869 1164.71635,143.002776 L1164.71635,450.578353 C1164.71635,454.984261 1163.33858,458.56575 1160.58305,461.32282 C1157.82753,464.079891 1154.24804,465.458427 1149.84459,465.458427 L1119.13868,465.458427 Z M1113.9518,65.0344352 C1109.54836,65.0344352 1105.96887,63.6558998 1103.21334,60.898829 C1100.45781,58.1417582 1099.08005,54.5602691 1099.08005,50.1543618 L1099.08005,15.4071605 C1099.08005,11.0012532 1100.45781,7.33191627 1103.21334,4.39914976 C1105.96887,1.46638325 1109.54836,0 1113.9518,0 L1154.51481,0 C1158.91826,0 1162.58554,1.46638325 1165.51667,4.39914976 C1168.44779,7.33191627 1169.91336,11.0012532 1169.91336,15.4071605 L1169.91336,50.1543618 C1169.91336,54.5602691 1168.44779,58.1417582 1165.51667,60.898829 C1162.58554,63.6558998 1158.91826,65.0344352 1154.51481,65.0344352 L1113.9518,65.0344352 Z"
       id="path7"
       transform="translate(1044.4313,240.65217)"
       style="fill:#ffffff;fill-opacity:1" />
    <path
       d="M1399.83369,471.945652 C1367.09152,471.945652 1339.65104,465.661153 1317.51225,453.092153 C1295.37346,440.523154 1278.46883,423.07522 1266.79836,400.748353 C1255.12788,378.421485 1248.73883,353.053731 1247.63122,324.645089 C1247.19898,317.509141 1246.98286,308.204027 1246.98286,296.729747 C1246.98286,285.255467 1247.19898,275.990898 1247.63122,268.93604 C1248.73883,240.094917 1255.22919,214.619042 1267.10227,192.508416 C1278.97536,170.397789 1295.9813,153.057976 1318.12009,140.488976 C1340.25888,127.919977 1367.49674,121.635477 1399.83369,121.635477 C1432.17064,121.635477 1459.4085,127.919977 1481.54729,140.488976 C1503.68608,153.057976 1520.69201,170.397789 1532.5651,192.508416 C1544.43819,214.619042 1550.92854,240.094917 1552.03616,268.93604 C1552.54944,275.990898 1552.80609,285.255467 1552.80609,296.729747 C1552.80609,308.204027 1552.54944,317.509141 1552.03616,324.645089 C1550.92854,353.053731 1544.5395,378.421485 1532.86902,400.748353 C1521.19855,423.07522 1504.29391,440.523154 1482.15513,453.092153 C1460.01634,465.661153 1432.57586,471.945652 1399.83369,471.945652 Z M1399.83369,421.912926 C1426.76764,421.912926 1448.24456,413.337625 1464.26445,396.187022 C1480.28434,379.03642 1488.90212,354.107905 1490.1178,321.401476 C1490.55004,314.914251 1490.76616,306.710614 1490.76616,296.790565 C1490.76616,286.870516 1490.55004,278.666879 1490.1178,272.179653 C1488.90212,239.284014 1480.28434,214.308196 1464.26445,197.252199 C1448.24456,180.196202 1426.76764,171.668204 1399.83369,171.668204 C1372.98079,171.668204 1351.52244,180.196202 1335.45865,197.252199 C1319.39486,214.308196 1310.75513,239.284014 1309.53945,272.179653 C1309.10721,278.666879 1308.89109,286.870516 1308.89109,296.790565 C1308.89109,306.710614 1309.10721,314.914251 1309.53945,321.401476 C1310.75513,354.107905 1319.39486,379.03642 1335.45865,396.187022 C1351.52244,413.337625 1372.98079,421.912926 1399.83369,421.912926 Z"
       id="path8"
       transform="translate(1044.4313,240.65217)"
       style="fill:#ffffff;fill-opacity:1" />
    <path
       d="M1637.94004,465.458427 C1633.53659,465.458427 1629.95711,464.079891 1627.20158,461.32282 C1624.44605,458.56575 1623.06828,454.984261 1623.06828,450.578353 L1623.06828,404.123737 C1623.06828,399.71783 1624.44605,396.048493 1627.20158,393.115727 C1629.95711,390.18296 1633.53659,388.716577 1637.94004,388.716577 L1684.37881,388.716577 C1688.78226,388.716577 1692.44954,390.18296 1695.38067,393.115727 C1698.31179,396.048493 1699.77736,399.71783 1699.77736,404.123737 L1699.77736,450.578353 C1699.77736,454.984261 1698.31179,458.56575 1695.38067,461.32282 C1692.44954,464.079891 1688.78226,465.458427 1684.37881,465.458427 L1637.94004,465.458427 Z"
       id="path9"
       transform="translate(1044.4313,240.65217)"
       style="fill:#ffffff;fill-opacity:1" />
    <path
       d="M1884.88116,471.945652 C1863.40424,471.945652 1843.7711,467.58029 1825.98172,458.849566 C1808.19235,450.118842 1793.91493,438.408048 1783.14945,423.717185 C1772.38398,409.026323 1767.00124,392.47714 1767.00124,374.069638 C1767.00124,344.255431 1779.07019,320.46218 1803.20808,302.689885 C1827.34598,284.917591 1858.91975,273.233827 1897.9294,267.638595 L1994.04875,253.974877 L1994.04875,235.405194 C1994.04875,214.673102 1988.15948,198.461796 1976.38094,186.771275 C1964.60241,175.080755 1945.39475,169.235494 1918.75796,169.235494 C1899.3612,169.235494 1883.69757,173.060254 1871.76707,180.709774 C1859.83657,188.359294 1851.35893,198.387464 1846.33414,210.794282 C1843.68667,216.957146 1839.21907,220.038579 1832.93133,220.038579 L1803.83618,220.038579 C1798.81139,220.038579 1795.15762,218.653286 1792.87485,215.8827 C1790.59208,213.112114 1789.49122,209.740108 1789.57227,205.766683 C1789.65331,199.306487 1792.14544,191.352878 1797.04866,181.905856 C1801.95189,172.458834 1809.5431,163.160478 1819.8223,154.010787 C1830.10151,144.861096 1843.39289,137.177788 1859.69643,130.960864 C1875.99998,124.74394 1895.7682,121.635477 1919.0011,121.635477 C1945.23266,121.635477 1967.15532,125.034513 1984.7691,131.832585 C2002.38287,138.630657 2016.30235,147.624924 2026.52752,158.815388 C2036.7527,170.005852 2044.11428,182.689729 2048.61228,196.86702 C2053.11028,211.044311 2055.35927,225.47163 2055.35927,240.148977 L2055.35927,450.578353 C2055.35927,454.984261 2053.98151,458.56575 2051.22598,461.32282 C2048.47045,464.079891 2044.89096,465.458427 2040.48752,465.458427 L2010.25774,465.458427 C2005.8543,465.458427 2002.27481,464.079891 1999.51928,461.32282 C1996.76375,458.56575 1995.38599,454.984261 1995.38599,450.578353 L1995.38599,422.399468 C1990.03702,430.346319 1982.62816,438.070172 1973.1594,445.571026 C1963.69065,453.071881 1951.80405,459.342865 1937.49961,464.38398 C1923.19517,469.425095 1905.65569,471.945652 1884.88116,471.945652 Z M1898.53724,423.372552 C1916.31311,423.372552 1932.46132,419.534276 1946.98188,411.857726 C1961.50243,404.181176 1973.03784,392.34199 1981.58808,376.340167 C1990.13833,360.338344 1994.41345,340.21443 1994.41345,315.968425 L1994.41345,297.925829 L1919.28475,308.994658 C1888.3796,313.346505 1865.18554,320.671663 1849.70257,330.970134 C1834.21961,341.268604 1826.47812,354.06736 1826.47812,369.3664 C1826.47812,381.529947 1829.99851,391.564874 1837.0393,399.47118 C1844.08008,407.377486 1853.12504,413.337625 1864.17417,417.351595 C1875.2233,421.365566 1886.67766,423.372552 1898.53724,423.372552 Z"
       id="path10"
       transform="translate(1044.4313,240.65217)"
       style="fill:#ffffff;fill-opacity:1" />
    <path
       d="M2163.79405,465.458427 C2159.39061,465.458427 2155.81112,464.079891 2153.05559,461.32282 C2150.30006,458.56575 2148.9223,454.984261 2148.9223,450.578353 L2148.9223,143.002776 C2148.9223,138.596869 2150.30006,135.01538 2153.05559,132.258309 C2155.81112,129.501238 2159.39061,128.122703 2163.79405,128.122703 L2194.49997,128.122703 C2198.90341,128.122703 2202.4829,129.501238 2205.23843,132.258309 C2207.99396,135.01538 2209.37172,138.596869 2209.37172,143.002776 L2209.37172,450.578353 C2209.37172,454.984261 2207.99396,458.56575 2205.23843,461.32282 C2202.4829,464.079891 2198.90341,465.458427 2194.49997,465.458427 L2163.79405,465.458427 Z M2158.60717,65.0344352 C2154.20373,65.0344352 2150.62424,63.6558998 2147.86871,60.898829 C2145.11319,58.1417582 2143.73542,54.5602691 2143.73542,50.1543618 L2143.73542,15.4071605 C2143.73542,11.0012532 2145.11319,7.33191627 2147.86871,4.39914976 C2150.62424,1.46638325 2154.20373,0 2158.60717,0 L2199.17019,0 C2203.57363,0 2207.24092,1.46638325 2210.17204,4.39914976 C2213.10317,7.33191627 2214.56873,11.0012532 2214.56873,15.4071605 L2214.56873,50.1543618 C2214.56873,54.5602691 2213.10317,58.1417582 2210.17204,60.898829 C2207.24092,63.6558998 2203.57363,65.0344352 2199.17019,65.0344352 L2158.60717,65.0344352 Z"
       id="path11"
       transform="translate(1044.4313,240.65217)"
       style="fill:#ffffff;fill-opacity:1" />
    <path
       d="M333.770226,237.896863 L333.770226,238.336273 C333.770226,238.708081 333.250505,239.282694 332.938672,239.891107 L332.696136,240.195314 C332.453599,240.499521 332.245711,240.803728 332.003175,241.074134 C331.760638,241.34454 331.20627,241.851551 330.755845,242.25716 C326.847597,245.45681 324.451431,250.077059 324.124205,255.044184 C323.796979,260.01131 325.567187,264.892773 329.023442,268.554145 C335.086208,274.952871 345.064729,275.992759 352.37623,270.9878 C362.461867,263.258918 368.830353,251.811806 369.977441,239.350295 C371.815683,218.175286 365.324494,197.111432 351.821861,180.435584 C350.853431,179.24842 349.812077,178.119655 348.703536,177.055508 C327.360336,156.234245 294.72187,149.778301 273.274725,150.555718 C266.134433,150.971209 259.072284,152.231059 252.243357,154.307602 C237.810842,158.151153 224.467612,165.156711 213.229649,174.790858 C197.729142,188.299711 187.281671,206.459757 183.536268,226.404607 C145.986669,229.779157 112.426702,250.656741 93.4513302,282.446255 C79.592109,303.267518 72.6624984,329.767308 74.1177167,359.106362 C63.9261863,363.750331 54.4833911,369.819466 46.0874418,377.122163 C33.4549783,388.704527 22.7993736,402.180408 14.5230656,417.040851 C-3.73645832,452.666845 -4.74125186,490.861695 11.3007967,540.92061 C13.9774018,548.614536 17.2077081,556.11443 20.9676034,563.364309 C25.5281855,571.871435 29.1629571,580.821113 31.812444,590.066904 C32.1992195,591.936959 32.4079958,593.837886 32.436109,595.74543 L32.436109,595.74543 C32.1242765,598.010081 31.777796,600.24093 31.4313154,602.505581 C29.4563764,614.978058 27.4121413,627.889946 29.2484881,640.801833 C33.9259752,686.196244 67.3613463,729.258403 114.378754,750.586678 C126.009901,755.813007 138.061822,760.097601 150.412729,763.397163 L154.5012,764.782994 C157.966005,765.96602 161.43081,767.115246 164.895615,768.467276 L166.004353,768.906686 C172.216951,771.440661 176.708269,776.850842 177.957931,783.305806 L177.957931,783.542412 C180.937664,803.822863 197.672674,821.804863 220.540388,829.241029 C230.534305,832.143613 240.915405,833.578969 251.342508,833.503019 L253.733223,833.503019 C255.257738,833.503019 256.747604,833.503019 258.272118,833.503019 C271.63951,833.473706 284.960544,831.965528 297.978787,829.004424 C308.937441,826.881513 319.593607,823.476849 329.716403,818.864198 C331.162651,818.090314 332.655199,817.401795 334.186002,816.802352 C337.444241,815.695644 340.446653,813.972709 343.021256,811.732239 C350.841792,805.485804 352.761788,794.578927 347.525503,786.145069 C342.658557,777.219796 331.796733,773.154313 322.059184,776.613257 L321.712703,776.613257 C313.207146,780.936338 304.266734,784.391068 295.033702,786.922487 L291.326361,787.835107 L283.495901,789.491344 C280.031095,790.167359 276.56629,790.708171 273.344021,791.11378 C268.12462,791.727411 262.870892,792.020928 257.613805,791.9926 C253.941112,791.9926 250.40701,791.789795 248.8132,791.654592 C236.443845,790.370164 220.367148,778.134291 219.916723,765.932219 C220.222833,760.048215 222.797059,754.494436 227.123519,750.383873 C250.996027,723.647478 303.349235,697.282891 319.772412,690.691744 C322.752145,689.508718 325.697229,688.156688 328.815554,686.601853 L331.414158,685.621631 C337.10427,683.889493 342.569039,681.518841 347.698743,678.557274 C355.004652,674.218675 357.722306,665.166528 353.97004,657.668409 C349.849784,649.341541 339.980385,645.356518 331.033029,648.407003 C321.208922,651.140202 311.588787,654.528246 302.240497,658.547229 C279.16943,667.45028 257.107542,678.664571 236.409197,692.009974 C225.148579,699.581342 203.181714,716.414117 192.128985,729.359805 C191.455234,730.474369 190.291555,731.222867 188.976012,731.38785 C187.821478,731.463969 186.695795,731.014724 185.926984,730.171023 L185.407263,729.59641 C182.229102,726.008286 179.867256,721.803325 178.477652,717.259136 C173.280444,702.116399 181.942457,680.078308 200.790998,660.84568 C206.403983,655.099552 211.774431,651.685676 222.480679,644.857924 C234.570985,637.152092 247.405826,630.619903 260.801426,625.35489 L263.22679,624.070461 L265.998634,622.549427 L274.140926,618.594739 C291.776785,610.11075 311.734064,600.477536 324.519195,590.438712 C345.550564,573.876343 351.613973,564.716339 356.845829,541.292418 C359.990048,526.189444 357.141955,510.485191 348.876777,497.35144 C339.140674,484.878962 325.108212,475.34715 305.04699,467.606777 L306.987281,466.694157 C317.381696,461.826849 330.617253,454.796292 339.625746,443.574442 C357.88527,421.90816 349.500442,391.893092 330.617253,373.978693 C336.16814,369.344694 340.856806,363.810145 344.476474,357.619128 C352.406721,343.304087 355.338158,326.857556 352.826655,310.771285 C348.218464,289.916221 328.988794,278.153559 312.011248,267.776728 L309.932365,266.4923 C305.636007,263.923442 303.002754,262.503811 301.097112,261.489788 C297.169169,259.433092 293.649144,256.708829 290.702696,253.445209 C285.20458,248.417929 281.552409,241.767259 280.30828,234.516788 C280.008374,232.672842 279.880807,230.806128 279.927151,228.939663 C279.927151,228.33125 280.13504,227.824239 280.204336,227.384829 C280.734568,226.146251 281.360015,224.948545 282.07533,223.801949 L283.703789,221.875306 C285.733452,219.822338 287.240663,217.333158 288.104092,214.608144 C290.217544,209.200033 289.270811,203.106962 285.609432,198.552787 C281.931064,193.518453 275.815987,190.734536 269.498087,191.218024 C259.623392,191.96164 254.356888,200.175223 250.129826,206.800171 L248.98644,208.55781 C237.06751,229.717081 246.041355,259.258939 261.494387,275.280495 C270.191048,285.420721 281.278425,291.741462 292.677635,297.9608 C304.076844,304.180139 312.634913,311.007891 315.54535,315.266786 C315.886154,315.749905 316.187371,316.258493 316.446199,316.787819 L316.896624,317.632838 C317.016277,317.940101 317.109004,318.256709 317.173808,318.579259 C317.294583,319.612468 317.294583,320.65572 317.173808,321.688929 C317.017082,323.956547 316.727878,326.213598 316.307607,328.449079 C315.317077,333.071468 313.685139,337.540525 311.456879,341.732775 L311.110399,342.307388 C310.441216,343.220052 309.712078,344.089429 308.927572,344.910046 C308.023682,345.827173 307.038119,346.66421 305.982487,347.411301 L304.839101,348.290121 C302.925457,349.811518 300.817399,351.084052 298.567804,352.075805 C297.278015,352.516355 295.873066,352.516355 294.583278,352.075805 C289.737278,349.748584 284.763519,347.683609 279.684615,345.890267 L277.224603,345.045249 C270.294992,342.712997 263.365382,340.245542 258.168174,341.191963 C249.512809,342.509068 243.363237,350.114917 244.066416,358.633151 C244.655433,368.46917 252.381949,373.201275 259.276912,376.277144 L260.454945,376.750354 C262.880309,377.629174 267.384556,379.285411 268.978366,380.13043 L272.858948,381.854268 C287.030002,388.039806 294.791166,391.453682 302.240497,397.301212 C303.493338,398.228895 304.653438,399.270087 305.705303,400.410881 C306.29432,401.120697 306.883336,401.864314 307.437705,402.60793 L307.749538,402.979738 C308.086941,404.141599 308.527483,405.272568 309.066164,406.359814 L309.066164,406.562618 C309.274052,407.340036 309.412644,407.880848 309.551236,408.286457 L309.897717,409.537084 C309.909091,409.615563 309.909091,409.695212 309.897717,409.77369 C310.253634,411.730281 310.037494,413.745106 309.274052,415.587419 C307.563606,419.743137 304.739402,423.373851 301.097112,426.099453 C290.044383,434.684844 270.745417,442.999829 243.789232,450.435995 L224.836747,455.675112 C189.946158,465.240725 164.722375,472.169879 128.168679,489.982876 C107.218509,499.471758 88.32887,512.793403 72.5239062,529.225549 C66.6683853,535.478688 63.4114683,539.669982 61.228641,542.441643 C58.2835565,546.193527 58.2835565,546.193527 56.7243941,546.092125 C55.1652317,545.990723 52.739868,543.962677 50.4877446,540.751606 C39.2271273,524.662448 29.4217284,480.653868 41.1674183,443.067431 C46.169101,425.193969 57.3898045,409.575166 72.9050348,398.889847 C79.2712415,394.500129 86.4303824,391.323468 94.0056991,389.527039 L94.3868276,389.527039 C96.3297571,389.223061 98.2192389,388.654149 99.9998122,387.837001 C101.703453,387.061958 103.289157,386.061005 104.711947,384.862535 C108.832558,381.741837 111.196819,376.903318 111.087189,371.815445 C111.170869,370.690231 111.170869,369.560582 111.087189,368.435369 C110.810005,363.568061 110.53282,359.985181 110.324932,357.044516 C109.444618,349.307954 109.807006,341.48477 111.399022,333.857199 C114.379824,316.098511 122.742598,299.617165 135.410122,286.536146 L140.60733,281.567435 C142.927808,279.21981 145.520799,277.143966 148.333846,275.381898 L151.798651,273.083446 C158.010148,269.159562 164.781909,266.15262 171.894522,264.160048 L172.206355,264.160048 L173.00326,263.957243 C180.273702,262.319473 187.686872,261.357485 195.143366,261.084179 L195.905623,261.084179 C206.646519,260.23916 218.011081,255.135247 217.83784,243.271183 L217.83784,242.459965 C218.115025,240.330517 218.634746,235.699814 219.050522,234.381585 L219.050522,234.009776 C219.25841,232.657746 220.124612,229.548077 220.575037,228.027043 L220.575037,227.790438 C222.604683,222.036898 225.204012,216.489915 228.3362,211.228069 C228.3362,211.228069 228.648033,210.721058 228.925217,210.180246 C230.64444,206.758759 232.823344,203.576014 235.404403,200.716035 C241.749259,194.309429 249.597956,189.506551 258.272118,186.722524 C287.341835,178.91455 315.094925,187.837948 325.14286,200.95264 L326.04371,202.101866 C329.75173,206.445503 332.341478,211.591048 333.596985,217.1094 C334.936747,222.986698 335.276212,229.038986 334.601779,235.023799 C334.402284,236.001285 334.124241,236.961939 333.770226,237.896863 Z M302.874111,557.266092 L302.491184,557.572418 C298.172115,560.798753 293.502357,563.549615 288.566563,565.775139 C286.373436,566.762189 284.319554,567.476948 281.952369,568.293817 C280.636497,559.939535 277.832305,551.875612 273.66722,544.468486 C262.945262,525.816655 240.352566,508.594344 215.810422,514.959111 C201.497002,518.90295 190.615201,530.303275 187.578255,544.536558 C184.5138,561.353033 190.808949,578.49615 204.113741,589.566434 C207.340143,592.495712 210.836119,595.127656 214.557207,597.428793 C185.245881,611.043268 166.795759,626.325517 151.687546,649.77645 C144.590937,662.41092 139.563485,676.054805 136.788203,690.211441 C135.35994,699.393803 135.35994,708.734534 136.788203,717.916897 C127.71875,714.317052 119.041955,709.83583 110.888409,704.540676 C82.3429373,680.953598 66.7821742,655.324348 64.6586696,628.401724 C60.2027911,572.344123 113.882202,534.121485 134.281771,519.485924 C147.823464,509.853683 185.176258,491.712395 227.785596,484.156361 C273.841277,475.95364 297.617567,488.54703 307.678105,496.783787 C316.17266,503.054633 321.407383,512.668249 321.985652,523.059724 C321.846406,542.426314 311.368129,550.594999 302.978545,557.163984 L302.874111,557.266092 Z M246.855666,576.061202 C244.657319,575.4997 242.49173,574.839104 240.367098,574.081913 L240.07383,574.081913 L240.07383,574.081913 C230.395966,570.618158 223.797422,566.131769 221.487931,561.447452 C221.048029,560.622748 217.565464,553.266391 223.210885,550.759292 C227.468392,548.84086 232.635454,549.842125 235.638142,553.167427 C242.12671,558.577483 245.755909,569.727478 246.855666,576.061202 Z"
       id="Shape"
       fill="#FFFFFF" />
    <path
       d="M177.64636,386.491483 C177.911858,383.886915 178.899014,381.393248 180.509426,379.259062 C181.153616,378.182608 181.90517,376.870681 182.871455,375.155083 L183.515645,374.381383 C184.752192,373.004284 186.078937,371.701038 187.488148,370.479239 C190.029119,368.83092 191.9259,367.552632 193.429009,366.543457 C198.761469,362.977705 198.833045,362.977705 207.45803,360.656602 L208.925352,360.656602 C214.902001,359.95018 221.630205,359.14284 226.497416,353.928769 C237.806525,341.414999 227.177394,329.069425 219.339752,320.020489 C217.944008,318.405809 216.548264,316.656572 215.224096,315.109171 C214.293599,314.099996 213.43468,312.989903 212.539972,311.91345 C208.96114,307.43944 204.809695,302.393565 197.866761,301.350751 C192.153659,300.225885 186.213684,301.753147 181.90517,305.45473 C177.421359,309.064963 175.008105,314.449141 175.391696,319.98685 C175.899754,324.605412 178.08642,328.91809 181.583075,332.197867 C172.864331,336.336906 164.893296,341.740487 157.962784,348.210111 C147.709665,358.760238 141.194502,372.042434 139.31707,386.222369 C137.231764,406.354509 142.263021,426.571499 153.632398,443.745345 C157.004621,448.538116 162.693604,451.438801 168.806645,451.482353 C172.636199,451.462472 176.373132,450.37359 179.543141,448.35391 C183.771256,445.794666 186.711789,441.730648 187.690259,437.094033 C188.66873,432.457418 187.601169,427.646105 184.732447,423.763679 C183.980893,422.754504 183.300915,421.678051 182.799878,420.870711 C182.061067,419.38979 181.404074,417.874011 180.831521,416.329424 C180.079966,413.941043 179.471564,412.124528 178.970528,410.678044 C177.300911,406.217387 176.488985,401.513083 176.572711,396.785068 L176.357981,393.421151 L176.357981,393.421151 C177.037959,389.956317 177.395842,387.937967 177.64636,386.491483 Z"
       id="Path"
       fill="#FFFFFF" />
    <path
       d="M651.219012,305.468395 C646.958886,301.790831 641.087044,300.250129 635.418658,301.32257 C628.252965,302.401159 624.16852,307.457043 620.549844,311.939928 C619.654133,313.018517 618.79425,314.097106 617.719396,315.310518 C616.644542,316.523931 615.139746,318.478873 613.742436,320.096756 C606.003487,329.163643 595.362432,341.533708 606.576742,354.106009 C611.413585,359.330423 618.185166,360.139365 624.132691,360.847189 L625.601658,360.847189 C634.236319,363.13919 634.307976,363.172896 639.646417,366.745721 C641.151213,367.756898 643.050122,369.037722 645.593943,370.689311 C646.993147,371.903334 648.298245,373.209963 649.499246,374.599196 L650.179986,375.441843 L652.580494,379.553963 C654.192712,381.692383 655.180976,384.190997 655.446771,386.800731 C655.69757,388.250085 656.055855,390.171321 656.664939,393.272264 L656.664939,393.272264 L656.449968,396.642854 C656.533788,401.380249 655.720951,406.093886 654.049461,410.563391 C653.547862,412.012744 652.938778,413.933981 652.222209,416.192276 C651.899753,417.102335 651.219012,418.619101 650.3233,420.540337 C649.679868,421.710777 648.949547,422.837097 648.137764,423.910927 C645.334129,427.801273 644.316195,432.590716 645.314165,437.196145 C646.312135,441.801574 649.241709,445.833965 653.440377,448.38141 C656.627129,450.375033 660.362005,451.452541 664.188917,451.482353 C670.371933,451.431116 676.121756,448.486394 679.523501,443.628878 C690.815982,426.523069 695.849155,406.411179 693.854888,386.362555 C691.944012,372.139711 685.398074,358.822585 675.116599,348.241182 C668.18543,341.807987 660.231792,336.429269 651.541468,332.298292 C655.013905,329.051688 657.190358,324.778096 657.703964,320.197874 C658.166562,314.595535 655.756863,309.122308 651.219012,305.468395 Z"
       id="path1"
       fill="#F18918" />
    <path
       d="M431.256694,845.804481 L431.256694,135.128289 C465.087754,127.584616 487.85339,95.6119976 484.084278,60.935931 C480.315166,26.2598645 451.219956,0 416.568937,0 C381.917918,0 352.822709,26.2598645 349.053597,60.935931 C345.284485,95.6119976 368.05012,127.584616 401.88118,135.128289 L401.88118,845.804481 C367.201538,853.361721 343.764113,886.02876 347.539023,921.546477 C351.313932,957.064195 381.086093,984 416.568937,984 C452.051781,984 481.823942,957.064195 485.598852,921.546477 C489.373761,886.02876 465.936336,853.361721 431.256694,845.804481 Z M455.140135,913.340426 C455.140135,935.02054 437.871222,952.595745 416.568937,952.595745 C395.266653,952.595745 377.997739,935.02054 377.997739,913.340426 C377.997739,891.660311 395.266653,874.085106 416.568937,874.085106 C437.863777,874.103388 455.122172,891.667888 455.140135,913.340426 L455.140135,913.340426 Z M455.140135,68.0425532 C455.140135,91.1680082 436.719961,109.914894 413.997524,109.914894 C391.275087,109.914894 372.854913,91.1680082 372.854913,68.0425532 C372.854913,44.9170981 391.275087,26.1702128 413.997524,26.1702128 C436.712304,26.1890153 455.12166,44.9248909 455.140135,68.0425532 Z"
       id="path2"
       fill="#F18918" />
    <path
       d="M818.613979,428.325943 C810.291229,413.513915 799.625745,400.073113 787.010065,388.498218 C778.615844,381.195962 769.170984,375.129997 758.975452,370.492978 C760.292282,341.137343 753.604173,314.686868 739.6735,293.979153 C720.723855,262.165401 687.152168,241.258237 649.574622,237.869016 C645.821408,217.947996 635.372898,199.811486 619.876645,186.319304 C608.618715,176.653273 595.23318,169.637813 580.75294,165.814275 L580.441059,165.814275 C573.689489,163.768336 566.70737,162.531853 559.64901,162.132153 C538.198546,161.355191 505.55503,167.80735 484.208526,188.616408 C482.961003,189.832522 481.956054,190.947293 481.055065,191.994502 C467.692479,208.669333 461.303644,229.658597 463.173903,250.739553 C464.323304,263.244998 470.733775,274.72813 480.881798,282.459854 C488.186387,287.400365 498.109621,286.333553 504.13424,279.960064 C510.339282,274.156566 511.239149,264.794855 506.248098,257.968674 C505.204561,256.33093 503.893568,254.870374 502.366916,253.644714 C501.948638,253.287596 501.555041,252.903908 501.188699,252.496162 C500.916652,252.215611 500.672954,251.910173 500.460978,251.584076 L500.218404,251.280048 C499.908121,250.779534 499.630348,250.260541 499.386722,249.726125 L499.213455,249.286973 C498.856208,248.382146 498.55533,247.457117 498.312466,246.516936 C497.626013,240.571211 497.953876,234.555725 499.282762,228.714381 C500.549725,223.176222 503.151157,218.011715 506.871859,213.648083 L507.772848,212.499531 C517.787685,199.392527 545.54507,190.47436 574.584632,198.243975 C583.395557,200.991595 591.379962,205.805459 597.837073,212.263065 C600.361248,215.073995 602.493542,218.197588 604.178648,221.552823 L604.80241,222.633813 C607.88134,227.754455 610.423848,233.164138 612.391507,238.781101 L612.599428,239.355377 C613.225,241.355054 613.745478,243.38455 614.158832,245.435946 L614.158832,245.773755 C614.574673,247.226335 615.129127,251.617857 615.371701,253.746056 L615.371701,254.658142 C615.371701,266.515251 626.564754,271.548611 637.203352,272.426915 L637.619193,272.426915 C645.099122,272.68287 652.537015,273.63303 659.832032,275.264514 L660.629061,275.50098 L660.940942,275.50098 C668.108688,277.511539 674.929351,280.551379 681.178536,284.520491 L684.331997,286.716252 C687.145479,288.477287 689.738871,290.551915 692.059708,292.898163 C693.203271,293.979153 694.728021,295.499296 697.084453,297.695057 L697.396334,297.999085 C709.967589,310.984088 718.270163,327.335859 721.237883,344.954589 C722.856936,352.596884 723.231157,360.440072 722.346793,368.195874 C722.138872,371.134816 721.861645,374.749376 721.584417,379.613831 C721.500967,380.738393 721.500967,381.867363 721.584417,382.991925 C721.46621,388.012223 723.760725,392.798109 727.787379,395.930024 C729.261072,397.155299 730.891894,398.188644 732.638857,399.004089 C734.431788,399.820851 736.333009,400.389364 738.287363,400.693136 L738.633898,400.693136 C740.193301,400.997165 777.099188,408.192505 791.515008,454.235923 C803.262516,491.766545 793.4556,535.783107 782.19324,551.862833 C779.940768,555.072023 777.584336,557.065098 775.955625,557.200222 C774.326915,557.335345 774.396222,557.200222 771.450681,553.518099 C769.267516,550.748062 766.010095,546.559226 760.153668,540.343534 C744.394967,523.96736 725.561661,510.688235 704.673551,501.225208 C668.114198,483.422653 642.886512,476.497561 607.990524,466.937556 L589.035106,461.70151 C562.074749,454.13458 542.807451,445.959593 531.683704,437.379235 C528.048695,434.655582 525.23523,431.025974 523.540152,426.873363 C522.776591,425.03213 522.560419,423.018486 522.91639,421.063042 C522.91639,421.063042 522.91639,420.860356 522.91639,420.759013 L523.262925,419.576681 C523.262925,419.171309 523.540152,418.630814 523.748072,417.887634 L523.748072,417.651167 C524.292651,416.567009 524.733462,415.436185 525.064902,414.273073 L525.34213,413.901483 L526.936187,411.908408 C528.119973,410.667804 529.419267,409.536928 530.817369,408.530314 C538.025279,402.855116 545.822298,399.443242 559.926237,393.26133 L563.91138,391.538502 C565.505437,390.829102 569.975728,389.173836 572.401467,388.160408 L573.787603,387.653694 C580.441059,384.647191 588.203424,379.917859 588.792532,370.087607 C589.511377,361.558043 583.333723,353.941836 574.653939,352.656643 C569.49058,351.710776 562.455937,354.143004 555.629214,356.50767 L553.168822,357.352193 C548.085797,359.13621 543.110799,361.20017 538.267853,363.534105 C536.977865,363.974397 535.572699,363.974397 534.282711,363.534105 C532.032767,362.542933 529.924383,361.271144 528.010442,359.75064 L526.86688,358.872335 C525.798307,358.115717 524.800971,357.267846 523.886686,356.338765 C523.115697,355.528002 522.398093,354.670506 521.738174,353.771414 L521.4956,353.366042 C519.21426,349.105474 517.54673,344.558493 516.540162,339.853667 C516.119826,337.619496 515.830577,335.363769 515.673827,333.09748 C515.553033,332.064877 515.553033,331.022236 515.673827,329.989633 C515.748833,329.607205 515.864986,329.23355 516.020361,328.874862 L516.401549,328.165463 C516.668304,327.651385 516.969277,327.154871 517.302537,326.679101 C520.213424,322.422703 528.772818,315.970544 540.104484,309.417042 C551.436151,302.86354 562.767817,296.715409 571.292558,286.817595 C586.851941,270.602744 595.827175,241.179547 583.80244,219.897557 L582.728184,218.242291 C578.535121,211.486103 573.267802,203.44624 563.495539,202.703059 C557.143457,202.196853 550.985464,204.980273 547.277741,210.033523 C543.615795,214.585028 542.668915,220.674527 544.782695,226.079468 C545.658838,228.828104 547.218274,231.323045 549.322293,233.34237 C549.876747,233.984208 550.431202,234.626046 550.847043,235.166541 C551.617887,236.333411 552.27899,237.565796 552.822287,238.848663 C552.822287,239.254034 552.822287,239.760748 553.099515,240.402586 C553.156172,242.360544 553.005206,244.318971 552.64902,246.246688 C551.370953,253.462232 547.722443,260.077603 542.252996,265.096452 C539.35277,268.2829 535.890518,270.937203 532.030239,272.933629 C530.124301,273.947057 527.490641,275.365857 523.193618,277.966989 L521.114413,279.216884 C504.272853,289.587632 485.040208,301.309617 480.396651,322.186237 C477.928602,338.292003 480.883224,354.743704 488.81743,369.074178 C492.455255,375.210324 497.143362,380.694411 502.678796,385.289029 C483.792685,403.192926 475.406559,433.190399 493.634255,454.810199 C502.678796,466.059251 515.847094,473.085686 526.277772,477.950141 L528.253016,478.862227 C508.154036,486.598061 494.119403,496.124286 484.312486,508.724576 C476.161438,521.831768 473.38902,537.456266 476.550122,552.47089 C481.782787,575.88108 487.847135,585.035714 508.881758,601.588374 C521.634214,611.722655 541.594581,621.215099 559.198516,629.727895 L567.307415,633.646484 L570.287608,635.234188 L571.916319,636.146274 L572.713348,636.517864 C586.033951,641.789482 598.799746,648.305816 610.832104,655.975684 C618.696271,660.418302 625.980203,665.772066 632.525141,671.920287 C651.272639,691.040298 660.039953,713.200593 654.841941,728.300672 C653.458584,732.854958 651.095932,737.069753 647.911258,740.664495 L647.495417,741.103648 C646.686096,741.966495 645.541312,742.457027 644.341956,742.454885 C643.091997,742.429333 641.915433,741.874362 641.119188,740.934743 C630.064749,727.962863 608.059831,711.139956 596.832124,703.606807 C576.224059,690.26714 554.251641,679.048091 531.267863,670.129897 C521.847597,666.082795 512.143101,662.696101 502.228302,659.995616 C493.279561,656.946919 483.408635,660.929606 479.287741,669.251593 C475.551926,676.647887 478.1737,685.600367 485.352089,689.959308 C490.515737,693.014712 496.043635,695.442472 501.812461,697.188428 L504.44612,698.134295 C507.495621,699.688218 510.545121,701.073236 513.490662,702.255569 C529.881727,708.842852 582.27769,735.191983 606.153893,761.912705 C610.481022,766.020859 613.055646,771.571382 613.361803,777.451937 C612.911309,789.545513 596.832124,801.875555 584.460855,803.159231 C582.624224,803.159231 578.916309,803.49704 575.658888,803.49704 C570.400988,803.525352 565.146446,803.232007 559.926237,802.618736 C556.460896,802.213364 552.995555,801.672869 549.772787,800.997251 L543.8124,799.814918 L538.302507,798.46368 C529.065562,795.963907 520.104562,792.580641 511.55007,788.36318 L511.203536,788.36318 C501.46448,784.906263 490.600975,788.969362 485.733276,797.889404 C480.518926,806.226894 482.346048,817.028528 490.0303,823.29267 C492.654403,825.611667 495.730273,827.392343 499.074841,828.528715 C500.676319,829.159473 502.238412,829.881376 503.753052,830.690695 C513.786922,835.193804 524.339409,838.505543 535.183699,840.554729 C548.247348,843.537979 561.617834,845.056706 575.035126,845.081871 L579.609377,845.081871 L581.931156,845.081871 C592.231429,845.112532 602.481267,843.678632 612.356854,840.824976 C635.262761,833.39317 652.000361,815.455492 654.980554,795.288272 L654.980554,794.882901 C656.241035,788.444439 660.731418,783.052079 666.935982,780.526002 L668.044892,780.08685 C671.510233,778.735612 674.975575,777.587061 678.440916,776.404728 L682.391405,775.087271 C694.769121,771.768812 706.84607,767.464139 718.500264,762.216734 C765.594254,740.900962 799.034799,697.830266 803.678357,652.59759 C805.549641,639.62571 803.678357,626.721392 801.529845,614.222445 C801.183311,611.925341 800.802124,609.628237 800.490243,607.466257 C800.539139,605.628181 800.747807,603.797454 801.114004,601.993745 C803.760114,592.693022 807.407439,583.691049 811.995177,575.1379 C815.755654,567.89227 818.98646,560.396773 821.663479,552.707357 C837.881277,502.137293 836.945635,464.066176 818.613979,428.325943 Z M696.230017,707.126 C693.467497,692.934332 688.440945,679.256357 681.3347,666.59369 C666.23057,643.125823 647.785434,627.662236 618.48203,614.174173 C622.115712,611.895043 625.528922,609.295611 628.679058,606.408319 C642.017622,595.32339 648.338299,578.139972 645.27968,561.277806 C642.224256,546.989732 631.28468,535.560671 616.915934,531.644941 C592.554434,525.309639 569.933041,542.510325 559.213981,561.175624 C555.053974,568.589803 552.250783,576.658851 550.931071,585.018159 C548.564526,584.2007 546.511199,583.485424 544.318664,582.497662 C539.384204,580.270532 534.715709,577.517683 530.397807,574.289018 L530.014984,573.982471 C521.627667,567.408744 511.152222,559.23416 511.152222,539.921707 C511.734361,529.514422 516.965748,519.88494 525.455903,513.592736 C535.513722,505.384091 559.283586,492.781609 605.500831,500.990253 C648.098654,508.551742 685.545759,526.70613 699.04899,536.413448 C719.269035,550.78709 772.933939,589.07139 768.479265,645.169469 C766.356334,671.907169 751.078193,697.316499 722.992864,720.750305 L722.157613,721.431521 C714.025947,726.683445 705.388657,731.143955 696.369225,734.74928 C697.757955,725.553904 697.711016,716.205391 696.230017,707.023817 L696.230017,707.126 Z M597.612068,569.894865 C599.700406,567.919043 602.559902,566.746523 605.590329,566.623425 C607.118247,566.633482 608.619813,566.981819 609.961979,567.637572 C615.535833,570.123866 612.111373,577.451892 611.674208,578.237038 C609.379092,582.882483 602.821617,587.331642 593.203987,590.766654 L592.730392,590.930226 C590.618984,591.681133 588.466873,592.336247 586.282208,592.89309 C587.484412,586.252066 591.127453,575.292742 597.612068,569.894865 Z"
       id="path3"
       fill="#F18918" />
  </g>
</svg>
